<?xml version="1.0" encoding="UTF-8" standalone="no"?><!DOCTYPE svg PUBLIC "-//W3C//DTD SVG 1.1//EN" "http://www.w3.org/Graphics/SVG/1.1/DTD/svg11.dtd"><svg width="1955px" height="475px" version="1.1" xmlns="http://www.w3.org/2000/svg" xmlns:xlink="http://www.w3.org/1999/xlink" xml:space="preserve" xmlns:serif="http://www.serif.com/" style="fill-rule:evenodd;clip-rule:evenodd;stroke-linejoin:round;stroke-miterlimit:2;"><g><g><g><g><path d="M151.465,5.052c11.702,-5.042 25.001,-4.181 37.123,-1.225c17.27,4.334 32.042,15.968 42.126,30.425c9.664,13.931 16.304,29.88 19.844,46.442c6.697,-0.048 13.385,0.009 20.082,-0.039c-0.029,9.807 0.038,19.614 -0.029,29.43c-7.214,0 -14.437,-0.009 -21.661,-0.009c0.048,14.37 0,28.741 0.039,43.112c-9.75,0.038 -19.49,0.019 -29.23,0.009c-0.028,-14.37 0.01,-28.731 0,-43.092c-14.188,-0.039 -28.377,-0.077 -42.566,0.019c0.009,47.417 0.029,94.825 -0.01,142.232c-9.72,-0.067 -19.441,-0.009 -29.162,-0.019c-0.048,-25.966 0.048,-51.943 -0.048,-77.909c-13.739,0.048 -27.478,-0.029 -41.217,0.029c0.009,-9.826 -0.01,-19.643 -0,-29.469c13.729,-0.086 27.459,-0.067 41.189,-0.019c0.124,-11.625 0.047,-23.249 0.047,-34.864c-15.901,-0.02 -31.802,-0.106 -47.704,0.038c0,11.127 0.096,22.254 -0.048,33.381c-0.067,7.482 -2.851,14.983 -8.027,20.437c-6.506,6.487 -14.744,10.83 -22.599,15.452c4.765,7.453 9.931,14.657 15.308,21.689c8.755,11.443 18.705,21.901 28.082,32.827c-8.611,5.999 -16.973,12.361 -25.556,18.408c-16.829,-21.632 -33.573,-43.37 -48.718,-66.227c-8.955,-14.045 -17.557,-28.311 -25.574,-42.901c8.256,-5.272 16.465,-10.601 24.77,-15.777c3.684,7.673 8.123,15.365 14.859,20.761c4.028,3.339 10.323,3.837 14.418,0.354c3.531,-3.147 4.248,-8.151 4.296,-12.629c0.038,-8.611 -0.067,-17.222 -0.01,-25.823c-19.69,-0.029 -39.38,-0.019 -59.08,-0.019c-4.133,-0.019 -8.285,0.134 -12.409,-0.268l0,-29.191c44.097,0.086 88.204,0.086 132.301,0.01c-3.358,-5.425 -6.362,-11.242 -7.386,-17.605c-0.947,-6.305 -0.88,-12.706 -0.564,-19.059c0.88,-16.638 11.672,-32.463 27.114,-38.911m-0.564,10.945c-9.491,5.731 -16.064,16.093 -17.126,27.124c-0.201,6.277 -0.565,12.62 0.478,18.849c2.459,10.668 9.405,19.441 15.729,28.1c-46.747,0.076 -93.504,-0.048 -140.261,0.057c-0.029,3.406 -0.039,6.812 -0.019,10.219c23.775,0.172 47.551,-0.154 71.317,0.162c-0.048,11.778 -0.134,23.556 0.009,35.334c0.02,7.405 -2.085,15.537 -8.304,20.149c-4.727,3.932 -11.29,5.071 -17.212,3.904c-9.52,-2.861 -16.065,-11.032 -21.164,-19.117c-2.937,1.837 -5.836,3.751 -8.726,5.674c9.271,15.882 18.82,31.612 29.277,46.748c11.156,15.595 22.57,31.018 34.348,46.154c3.177,-2.239 6.401,-4.411 9.424,-6.86c-1.617,-2.784 -4.114,-4.899 -6.161,-7.348c-8.937,-10.314 -17.595,-20.905 -25.173,-32.262c-4.65,-6.583 -9.099,-13.395 -12.495,-20.714c8.917,-1.923 18.207,-3.99 25.545,-9.769c6.277,-4.611 10.697,-11.988 10.745,-19.891c0.029,-13.988 -0.01,-27.966 0.009,-41.954c22.121,-0.287 44.27,-0.258 66.4,-0.019c0.029,17.997 0.048,35.993 -0.01,53.99c-13.806,-0.048 -27.621,0.048 -41.428,-0.038c-0.134,3.482 -0.134,6.975 0.058,10.467c13.796,-0.077 27.593,-0.058 41.399,-0.029c-0.01,25.995 0.048,51.991 -0.038,77.977c3.511,-0 7.022,0.009 10.524,0.009c-0.201,-47.503 -0.076,-95.007 -0.048,-142.52c20.36,-0.028 40.72,0.029 61.08,-0.028c-0.076,14.476 -0.095,28.961 0.029,43.446c3.502,-0.047 7.003,-0.038 10.505,-0.038c-0.086,-14.39 0.029,-28.789 -0.048,-43.188c7.176,-0.412 14.361,-0.115 21.547,-0.192c0.009,-3.434 0.028,-6.869 -0.039,-10.304c-6.218,0.029 -12.428,-0.057 -18.647,0.077c-1.531,-13.912 -6.41,-27.259 -12.696,-39.687c-6.621,-11.864 -15.174,-23.125 -26.914,-30.31c-8.917,-5.435 -19.164,-8.793 -29.65,-9.004c-7.673,-0.765 -15.672,0.747 -22.264,4.832Z" style="fill:#00587c;fill-rule:nonzero;"/><path d="M147.945,32.492c5.176,-7.463 14.475,-11.127 23.335,-11.194c9.539,-0.383 19.193,2.525 26.866,8.218c12.926,8.573 20.915,22.522 27.029,36.405c3.511,7.683 5.271,15.959 7.07,24.168c-21.604,0.019 -43.217,-0 -64.821,-0c-2.344,0.191 -4.123,-1.531 -5.855,-2.822c-9.788,-8.267 -16.916,-20.016 -18.513,-32.837c-0.708,-7.539 0.363,-15.662 4.889,-21.938m9.357,3.301c-4.822,4.908 -5.703,12.332 -4.765,18.857c1.703,10.314 7.855,19.538 15.94,26.015c17.269,0.019 34.539,-0.019 51.809,0.009c-3.473,-12.533 -9.386,-24.502 -17.701,-34.539c-6.4,-7.845 -15.394,-13.921 -25.564,-15.298c-6.812,-0.651 -14.505,0.047 -19.719,4.956Z" style="fill:#00587c;fill-rule:nonzero;"/><path d="M219.501,163.722c9.702,-0.048 19.403,-0.086 29.114,0.009c-0.028,3.416 -0.019,6.832 -0.028,10.247c-9.692,-0.029 -19.384,0.067 -29.067,-0.019c0.048,-3.416 0.048,-6.831 -0.019,-10.237Z" style="fill:#00587c;fill-rule:nonzero;"/><path d="M219.501,184.837c9.682,-0.076 19.365,-0.162 29.038,-0.172c0.076,3.397 0.057,6.793 0.029,10.19c-9.673,-0.048 -19.356,0.038 -29.029,-0.058c0.039,-3.32 0.039,-6.64 -0.038,-9.96Z" style="fill:#00587c;fill-rule:nonzero;"/><path d="M219.712,205.264c9.749,-0.057 19.498,0 29.257,-0.028c-0.009,15.719 0.039,31.429 -0.028,47.149c-9.711,-0.067 -19.423,-0.105 -29.134,-0.019c-0.153,-15.701 0.067,-31.401 -0.095,-47.102m9.309,9.463c0.019,9.376 -0,18.752 0.038,28.129c3.502,0.067 7.013,0.076 10.525,0.086c0.009,-9.377 -0.039,-18.762 0.028,-28.148c-3.53,-0.029 -7.061,-0.029 -10.591,-0.067Z" style="fill:#00587c;fill-rule:nonzero;"/></g><path d="M394.12,0l0.852,0c15.231,26.895 30.243,53.923 45.637,80.722c76.743,-0.153 153.485,-0.028 230.227,-0.057c-0.019,7.568 -0.067,15.126 0.038,22.694c-30.32,0.019 -60.63,-0.028 -90.95,0.029c0.01,13.577 0.048,27.163 -0,40.749c7.472,-7.119 17.212,-12.132 27.66,-12.496c17.117,-0.784 34.358,8.936 42.031,24.35c5.645,10.639 6.343,23.374 3.348,34.912c-3.941,15.385 -12.887,29 -23.306,40.778c-2.765,2.937 -5.31,6.18 -8.669,8.467c-7.261,-5.023 -14.122,-10.63 -21.154,-15.978c3.579,-2.87 6.927,-6.037 9.874,-9.568c8.171,-9.28 15.194,-20.36 16.456,-32.922c0.498,-6.63 -0.296,-13.691 -3.788,-19.47c-3.847,-6.41 -12.103,-8.812 -19.155,-7.578c-7.568,1.129 -13.911,6.2 -18.379,12.18c-2.392,3.272 -5.243,6.812 -4.937,11.118c0.057,24.818 0.038,49.637 0.019,74.455c-9.596,-0.105 -19.193,-0.048 -28.789,-0.038c-0.105,-13.519 0.191,-27.048 -0.182,-40.577c-10.094,6.487 -22.302,10.314 -34.348,8.688c-13.012,-1.397 -25.507,-8.19 -33.037,-18.992c-8.659,-12.486 -10.668,-28.76 -7.52,-43.418c2.516,-11.673 10.362,-21.891 20.838,-27.564c10.907,-5.961 23.604,-9.042 36.013,-8.363c2.488,7.463 4.114,15.184 6.429,22.705c-8.735,-0 -17.843,0.918 -25.603,5.233c-5.903,3.215 -10.361,9.214 -11.136,15.959c-0.718,7.664 -0.067,15.949 4.487,22.426c3.741,5.636 10.476,8.927 17.212,8.669c10.304,0.507 19.604,-5.884 25.546,-13.854c1.454,-1.722 1.224,-4.095 1.311,-6.19c-0.048,-24.57 0.009,-49.15 -0.029,-73.719c-35.649,0.028 -71.289,-0 -106.938,0.009c0.105,13.988 0,27.976 0.067,41.964c-20.522,-0.01 -41.036,0.019 -61.549,-0.019c-2.229,0.172 -5.262,-0.182 -6.563,2.095c-0.344,1.837 0.153,3.732 1.244,5.243c3.827,5.636 8.343,10.879 13.777,15.022c2.784,2.171 6.018,4.324 9.711,4.114c10.764,0.201 20.351,-5.645 30.818,-7.147c5.731,-0.909 12.045,0.153 16.341,4.315c7.53,7.137 9.912,18.121 9.951,28.148c0.469,12.725 -3.186,26.081 -12.151,35.429c-10.285,10.801 -25.527,15.585 -40.136,15.939c-18.686,0.574 -36.501,-7.501 -51.302,-18.35c-14.562,-10.735 -27.258,-23.881 -38.213,-38.242c-4.392,-5.837 -8.803,-11.711 -12.19,-18.198c6.191,-5.635 12.218,-11.443 18.428,-17.059c7.558,13.194 16.494,25.584 26.454,37.065c9.319,10.467 19.537,20.436 31.822,27.373c5.712,3.129 11.845,5.674 18.313,6.63c6.908,0.938 14.533,0.67 20.379,-3.587c6.755,-4.488 9.788,-12.63 10.677,-20.389c0.431,-4.707 0.871,-9.864 -1.559,-14.132c-1.521,-2.64 -5.033,-2.076 -7.406,-1.138c-8.955,3.368 -18.226,6.621 -27.918,6.554c-4.784,-0.058 -9.166,-2.306 -13.165,-4.727c-13.825,-8.869 -25.871,-21.498 -31.908,-36.94c-1.952,-5.865 -3.808,-12.649 -0.842,-18.514c2.669,-6.324 9.462,-10.515 16.303,-10.228c17.585,0.048 35.18,-0.038 52.766,0.058c-0,-7.08 -0,-14.16 -0.019,-21.24c-42.05,-0.096 -84.09,-0 -126.14,-0.048c0.019,-7.559 0.009,-15.127 0.019,-22.685c31.63,-0.086 63.261,0.143 94.892,-0.115c-16.237,-9.979 -32.731,-19.537 -49.025,-29.43c4.057,-7.692 8.027,-15.414 12.103,-23.096c17.586,16.839 35.142,33.716 52.708,50.584c1.082,0.957 2.23,2.133 3.827,1.999c7.071,0.163 14.151,0.067 21.222,0c-19.059,-22.455 -38.128,-44.92 -57.225,-67.346c8.468,-4.43 16.935,-8.869 25.431,-13.261Z" style="fill:#00587c;fill-rule:nonzero;"/></g><g><path d="M7.912,354.108c12.687,-28.913 42.643,-49.57 74.351,-50.115c24.512,-0.153 49.034,-0.019 73.546,-0.086c0.115,13.452 0.029,26.895 0.029,40.347c-23.25,-0.058 -46.499,0.009 -69.748,-0.039c-8.439,-0.028 -16.935,2.182 -24.111,6.669c-13.04,8.008 -21.297,23.192 -20.771,38.51c-0.373,12.734 5.434,25.373 15.04,33.678c7.913,6.936 18.475,10.333 28.904,10.572c23.565,0.01 47.14,-0.048 70.705,0.029c-0.096,13.462 0.191,26.923 -0.163,40.375c-23.794,-0.248 -47.599,0 -71.403,-0.124c-16.389,-0.019 -32.712,-5.147 -46.26,-14.371c-17.059,-11.481 -29.87,-29.286 -34.96,-49.244c-1.09,-4.019 -1.674,-8.152 -2.65,-12.199c-0.746,-2.602 0.622,-5.167 0.584,-7.779c0.296,-2.946 -0.833,-5.759 -0.995,-8.668c2.028,-9.319 3.721,-18.867 7.902,-27.555m31.784,-19.814c-15.088,12.543 -24.57,31.63 -25.278,51.254c-0.947,15.719 3.56,31.688 12.515,44.642c10.505,15.423 27.392,26.493 45.867,29.469c8.171,1.664 16.533,1.119 24.809,1.205c15.041,-0.019 30.071,0.038 45.112,-0.029c0.028,-4.286 -0.019,-8.563 0.153,-12.839c-1.694,-0.24 -3.397,-0.46 -5.109,-0.44c-15.634,0.057 -31.267,0.009 -46.891,0.028c-6.736,0.019 -13.596,0.153 -20.102,-1.837c-19.786,-5.051 -36.041,-21.364 -41.313,-41.055c-3.483,-13.203 -2.555,-27.736 3.425,-40.088c7.444,-15.997 22.455,-28.397 39.754,-32.176c7.845,-1.894 15.987,-1.493 23.995,-1.512c15.375,-0.028 30.751,0.039 46.116,-0.038c0,-4.344 -0.009,-8.678 0.01,-13.012c-18.561,-0.23 -37.113,-0.029 -55.674,-0.105c-17.059,-0.211 -34.348,5.396 -47.389,16.533Z" style="fill:#00587c;fill-rule:nonzero;"/><g><path d="M168.926,303.926c24.704,0.019 49.417,-0.057 74.121,0.057c17.002,0.718 33.783,6.726 47.302,17.088c17.5,13.117 29.727,33.2 32.913,54.871c3.32,19.183 -0.775,39.418 -10.706,56.104c-12.935,22.121 -36.348,37.888 -61.817,41.103c-6.668,1.072 -13.452,0.756 -20.178,0.794c-20.532,0.048 -41.064,-0.048 -61.596,0.067c-0.039,-18.695 -0.029,-37.39 -0.058,-56.076c13.079,0.077 26.168,-0.029 39.247,0.086c-0.058,5.234 -0.096,10.467 -0,15.71c7.166,-0.162 14.332,-0.067 21.498,-0.095c6.717,-0.058 13.567,0.488 20.15,-1.235c12.428,-2.698 23.278,-11.423 28.885,-22.79c6.018,-11.902 6.19,-26.473 1.004,-38.701c-6.391,-15.308 -21.938,-26.292 -38.605,-26.646c-24.034,-0.057 -48.078,-0.057 -72.112,0.01c-0.076,-13.452 0.01,-26.895 -0.048,-40.347Z" style="fill:#00587c;fill-rule:nonzero;"/><path d="M168.993,358.835c13.051,0.134 26.111,-0.144 39.161,0.048c-0.01,1.157 -0.019,2.315 -0.019,3.482c-13.108,0.019 -26.225,0.105 -39.343,-0.057c0.048,-0.871 0.154,-2.612 0.201,-3.473Z" style="fill:#00587c;fill-rule:nonzero;"/><path d="M168.926,370.364c13.07,0.067 26.139,-0.039 39.209,0.028c-0.01,1.809 -0.01,3.617 -0.01,5.425c-13.079,0 -26.167,0.134 -39.256,-0.057c0.029,-1.808 0.048,-3.607 0.057,-5.396Z" style="fill:#00587c;fill-rule:nonzero;"/><path d="M168.869,383.959c13.089,-0.162 26.177,-0.114 39.266,-0.028c-0.029,2.602 -0.039,5.204 -0.048,7.816c-13.05,-0.009 -26.091,0.058 -39.141,-0.019c-0,-2.593 -0.029,-5.185 -0.077,-7.769Z" style="fill:#00587c;fill-rule:nonzero;"/><path d="M168.888,399.784c13.089,0.096 26.177,0.048 39.266,0.039c-0.058,3.339 -0.019,6.687 -0,10.036c-13.089,-0.057 -26.177,0.048 -39.266,-0.038c0.058,-3.349 0.077,-6.698 0,-10.037Z" style="fill:#00587c;fill-rule:nonzero;"/></g><g><path d="M401.908,305.859c14.763,-3.349 30.406,-2.306 44.719,2.516c17.088,5.817 32.138,17.365 42.261,32.3c9.414,13.692 14.657,30.215 14.686,46.844c0.105,28.76 0.038,57.511 0.029,86.271c-13.28,-0.057 -26.56,-0.038 -39.84,0c0.125,-27.163 0.038,-54.325 0.058,-81.488c0.067,-7.443 -0.747,-15.059 -3.78,-21.929c-4.104,-9.807 -11.844,-18.025 -21.46,-22.598c-11.826,-5.76 -26.311,-5.626 -38.079,0.2c-10.525,4.966 -18.638,14.409 -22.637,25.259c-2.325,6.468 -2.966,13.404 -2.689,20.236c5.004,0.019 10.008,0.019 15.021,-0c-0.019,13.193 0.02,26.387 -0.028,39.581c-5.004,-0.038 -10.008,-0.029 -15.012,-0.019c-0.009,13.576 -0.009,27.162 0,40.739c-13.289,-0 -26.588,-0.048 -39.878,0.029c0.01,-28.742 -0.019,-57.492 0.029,-86.234c0.124,-16.236 5.071,-32.348 14.045,-45.867c11.96,-18.188 31.248,-31.363 52.555,-35.84Z" style="fill:#00587c;fill-rule:nonzero;"/><path d="M398.12,393.479c3.377,0.01 6.745,0 10.122,0.01c0.038,13.174 0.029,26.349 0.01,39.514c-3.368,0.019 -6.746,0.01 -10.104,0.048c-0.009,-13.194 0.029,-26.388 -0.028,-39.572Z" style="fill:#00587c;fill-rule:nonzero;"/><path d="M416.183,393.45c2.641,0.01 5.291,0.039 7.932,0.192c-0.211,12.983 0.048,25.986 -0.125,38.969c-2.439,0.861 -5.176,0.258 -7.73,0.421c-0.287,-13.184 -0.144,-26.388 -0.077,-39.582Z" style="fill:#00587c;fill-rule:nonzero;"/><path d="M431.807,393.47c1.885,0.028 3.779,0.076 5.674,0.153c-0.172,13.117 0.048,26.244 -0.115,39.361c-1.847,0.01 -3.693,0.019 -5.53,0.029c-0.067,-13.185 -0.019,-26.359 -0.029,-39.543Z" style="fill:#00587c;fill-rule:nonzero;"/><path d="M445.154,393.527c1.167,-0.038 2.335,-0.067 3.511,-0.086c0.555,6.611 -0.315,13.232 -0.047,19.862c0.258,6.564 0.421,13.156 -0.029,19.729c-1.139,-0.01 -2.277,-0.019 -3.406,-0.029c-0.067,-13.155 -0.01,-26.32 -0.029,-39.476Z" style="fill:#00587c;fill-rule:nonzero;"/></g><path d="M548.848,321.186c14.763,-11.347 33.401,-17.471 52.01,-17.241c23.326,-0.038 46.661,-0.019 69.997,-0.019c-0.096,13.443 0.01,26.885 -0.057,40.337c-23.661,-0.067 -47.312,-0.019 -70.964,-0.029c-13.366,0.039 -26.493,6.506 -34.625,17.098c-8.611,10.62 -11.682,25.325 -8.448,38.567c3.626,15.385 16.169,28.244 31.525,32.109c7.472,2.306 15.375,1.502 23.077,1.636c19.834,0.086 39.677,-0.182 59.511,0.134c-0.115,13.404 -0.076,26.809 -0.009,40.203c-23.642,-0.067 -47.293,-0.009 -70.935,-0.028c-19.633,-0.077 -39.247,-7.033 -54.229,-19.786c-11.644,-9.606 -20.504,-22.484 -25.508,-36.702c-5.377,-14.743 -6.027,-30.98 -2.975,-46.298c4.133,-19.728 15.585,-37.801 31.63,-49.981Z" style="fill:#00587c;fill-rule:nonzero;"/></g></g><g><g><path d="M1348.17,12.62c8.86,0.019 17.719,-0.019 26.579,0.028c-0.182,5.081 1.502,10.247 5.396,13.673c7.061,6.429 17.184,7.319 26.302,7.491c7.941,-0.105 16.877,-1.272 22.522,-7.482c3.588,-3.636 3.741,-9.003 4.344,-13.768c8.744,0.182 17.489,-0.124 26.234,0.201c-0.22,6.487 -1.808,13.098 -5.846,18.303c-5.377,7.214 -13.815,11.376 -22.197,14.065c-12.581,3.741 -25.871,3.817 -38.854,2.937c-11.223,-1.292 -22.647,-4.229 -31.879,-10.984c-7.932,-5.444 -12.936,-14.801 -12.601,-24.464Z" style="fill:#00587c;fill-rule:nonzero;"/><path d="M1305.96,68.868c11.548,-5.645 24.493,-8.247 37.333,-7.702c11.433,0.182 23.479,3.081 32.137,10.936c8.382,7.424 9.836,21.23 3.272,30.272c-2.899,4.334 -7.338,7.233 -11.643,9.998c6.018,1.732 12.045,3.511 17.824,5.97c2.765,1.158 5.329,2.842 8.257,3.646c8.754,1.224 17.49,-1.244 25.622,-4.306c0.086,-13.481 0.306,-26.981 -0.048,-40.452c-8.161,0.105 -16.322,0.038 -24.474,0.029c-0.067,-5.368 -0.009,-10.745 -0.057,-16.112c27.354,0.029 54.717,-0.239 82.062,0.22c157.617,-0.01 315.235,-0.019 472.852,-0c0.019,5.482 -0.038,10.964 0,16.437c-7.013,-0.029 -14.017,-0.019 -21.02,-0.019c0.009,36.654 -0.086,73.317 0.057,109.971c-9.481,0.028 -18.953,0.009 -28.425,-0.02c0.095,-19.116 0.009,-38.232 0.019,-57.348c-9.788,0.01 -19.575,-0 -29.354,-0.01c-5.214,-5.434 -10.457,-10.84 -15.576,-16.351c14.983,-0.134 29.976,0.153 44.968,-0.134c-0.048,-12.036 0,-24.062 -0.038,-36.089c-15.433,-0.048 -30.856,0.01 -46.279,-0.029c-0.162,10.439 -0.009,20.877 -0.095,31.315c0.181,5.999 -2.22,12.218 -7.224,15.758c-7.204,5.129 -16.361,6.076 -24.895,7.099c3.129,5.751 8.286,10.008 12.935,14.495c10.228,9.482 20.523,18.906 31.421,27.622c-7.195,4.325 -14.601,8.286 -21.882,12.457c-26.282,-24.742 -51.368,-50.957 -72.312,-80.435c7.08,-3.502 14.227,-6.898 21.326,-10.39c3.827,6.735 8.238,13.557 14.868,17.853c3.521,2.43 8.143,2.507 12.113,1.234c3.531,-1.148 5.846,-4.822 5.664,-8.496c0.019,-9.51 0.038,-19.03 -0.057,-28.55c-32.1,0.115 -64.199,0.029 -96.299,0.058c0,5.644 0.058,11.299 -0.248,16.944c-0.307,6.544 0.545,13.079 0.134,19.614l-58.411,-0c-5.674,0.134 -11.893,0.315 -16.523,4.018c-4.784,3.569 -6.65,9.826 -6.324,15.595c-0.374,7.712 3.951,14.792 9.471,19.834c13.644,13.012 34.999,18.341 52.718,11.07c8.027,-3.1 15.366,-8.257 20.341,-15.375c7.023,4.094 14.246,7.864 21.441,11.672c-11.318,12.295 -27.172,19.843 -43.657,21.987c-19.308,2.602 -39.696,0.554 -57.167,-8.487c-8.438,-4.535 -16.456,-10.218 -22.465,-17.767c-7.424,-9.262 -10.505,-21.881 -7.835,-33.487c-4.622,-0.584 -9.31,-1.167 -13.95,-0.574c-7.425,1.521 -13.366,6.659 -18.743,11.682c-1.387,1.445 -3.464,2.794 -3.062,5.09c-0.009,16.055 0.019,32.109 -0.009,48.164c-9.377,-0 -18.763,-0.067 -28.139,0.028c0.067,-10.007 0.058,-20.006 -0.009,-30.004c-15.232,7.779 -33.669,8.889 -49.723,3.024c-10.448,-3.818 -19.825,-12.008 -23.011,-22.915c-2.344,-8.601 -1.98,-18.398 2.861,-26.091c4.21,-7.013 11.443,-11.586 18.915,-14.524c9.157,-3.788 19.155,-4.563 28.923,-5.453c1.512,0.105 3.292,-0.574 4.698,0.239c2.191,5.434 3.999,11.032 5.884,16.59c-10.438,0.192 -21.9,0.574 -30.578,7.128c-6.937,5.377 -6.669,15.835 -2.794,22.963c3.655,6.199 11.3,8.448 18.112,8.352c8.649,0.536 17.183,-2.966 23.594,-8.678c1.224,-1.263 3.3,-2.315 3.109,-4.372c0.124,-18.781 0.038,-37.553 0.038,-56.334c-26.139,0.134 -52.277,0.028 -78.416,0.057c-10.295,0.249 -20.551,-0.823 -30.846,-0.526c-0.029,36.854 0.191,73.719 -0.096,110.583c-9.501,-0.153 -18.992,-0.086 -28.473,-0.058c0.287,-17.633 -0.22,-35.276 0.248,-52.918c-7.405,2.009 -15.059,1.301 -22.503,0.009c2.813,6.439 2.813,14.055 -0.191,20.437c-3.157,7.252 -9.606,12.371 -16.265,16.274c-18.016,10.132 -41.064,10.572 -59.568,1.435c-13.749,-6.467 -24.675,-17.365 -34.817,-28.406c-4.066,-4.86 -8.793,-9.596 -10.381,-15.93c7.798,-2.65 15.729,-4.908 23.518,-7.597c5.061,6.717 9.318,14.055 15.021,20.284c6.439,7.051 13.615,13.787 22.378,17.824c8.037,3.751 17.815,4.21 25.891,0.325c7.797,-3.989 9.634,-14.246 7.252,-22.005c-1.751,-5.291 -6.659,-8.85 -11.835,-10.381c-8.544,-2.593 -17.701,-2.641 -26.493,-1.493c-2.918,-5.377 -6.238,-10.524 -9.281,-15.834c8.946,1.521 18.571,0.268 26.445,-4.411c4.449,-2.631 8.353,-7.156 8.439,-12.553c0.344,-4.286 -0.651,-9.213 -4.219,-11.959c-5.062,-3.531 -11.644,-4.076 -17.586,-3.186c-8.965,1.732 -16.992,6.515 -24.149,12.026c-1.09,0.555 -2.305,2.316 -3.578,1.177c-6.161,-3.597 -12.419,-7.022 -18.398,-10.907c5.616,-3.913 10.888,-8.439 17.26,-11.127m278.782,8.888c-0.019,12.4 0.009,24.809 -0.01,37.209c3.607,-2.488 7.31,-4.947 11.472,-6.439c8.238,-3.244 17.365,-3.004 25.976,-1.655c2.43,0.488 5.339,0.708 6.831,3.023c8.755,-8.295 21.107,-11.491 32.903,-11.596c13.366,-0.067 26.742,-0.019 40.108,-0.019c0.364,-6.822 0.306,-13.682 0.029,-20.513c-39.103,0.029 -78.206,0.057 -117.309,-0.01Z" style="fill:#00587c;fill-rule:nonzero;"/></g><g><path d="M1685.31,222.4c11.663,0 23.335,0.067 35.008,-0.038c0.325,17.289 -0.182,34.587 0.268,51.876c19.604,-0.192 39.218,-0.058 58.831,-0.077c0.115,10.945 0.029,21.881 0.048,32.827c-19.652,0.047 -39.294,-0.048 -58.937,0.057c-0.248,28.76 -0.076,57.521 -0.086,86.291c0.297,10.294 2.364,21.259 9.252,29.305c5.961,7.157 15.165,10.592 24.139,12.027c8.42,1.626 17.04,1.129 25.575,1.225c0.095,11.136 0.115,22.283 -0.019,33.419c-19.786,0.096 -40.405,-0.22 -58.707,-8.725c-13.759,-6.057 -25.039,-17.653 -30.139,-31.861c-4.047,-10.371 -5.195,-21.594 -5.195,-32.654c-0.038,-57.894 0.019,-115.778 -0.038,-173.672Z" style="fill:#da251c;fill-rule:nonzero;"/><path d="M1356.51,275.213c22.14,-6.783 46.614,-6.419 68.275,1.962c18.427,7.348 34.73,20.226 45.513,36.941c8.774,13.241 13.911,28.779 15.031,44.604c1.177,10.496 0.928,21.077 1.062,31.621c-0.038,26.311 0.057,52.622 -0.048,78.943c-11.739,-0.067 -23.479,0.048 -35.209,-0.077c0.067,-28.837 -0.019,-57.674 0.01,-86.511c0.105,-11.825 0.191,-23.919 -3.397,-35.323c-4.353,-15.041 -14.38,-28.493 -27.957,-36.405c-10.648,-6.095 -23.153,-8.133 -35.295,-7.386c-18.312,0.373 -35.859,10.266 -46.23,25.268c-11.099,15.442 -13.539,35.4 -11.367,53.875c2.277,16.916 10.716,33.104 24.254,43.696c14.409,11.902 34.358,14.877 52.373,11.749c13.079,-2.335 25.058,-8.678 35.697,-16.466c0.153,12.524 0.067,25.038 0.067,37.562c-20.082,11.07 -43.772,15.242 -66.447,12.113c-31.851,-4.65 -60.353,-26.694 -73.326,-56.076c-8.812,-19.719 -10.975,-42.069 -7.511,-63.3c4.87,-34.95 30.597,-66.399 64.505,-76.79Z" style="fill:#da251c;fill-rule:nonzero;"/><path d="M1585.47,280.466c21.155,-7.243 43.849,-6.219 65.883,-6.324c0.326,11.108 0.01,22.226 0.173,33.334c-13.73,0.181 -27.641,-0.412 -41.122,2.669c-15.385,3.109 -30.224,10.563 -40.682,22.446c-9.309,10.505 -14.275,24.627 -13.863,38.634c-0.479,10.448 1.98,21.01 6.965,30.195c8.027,14.017 21.824,24.187 37.017,29.258c7.405,2.603 15.174,3.942 22.953,4.918c9.462,1.024 19.03,0.134 28.521,0.727c0.392,10.974 0.105,21.987 0.096,32.98c-10.898,-0.23 -21.834,0.373 -32.703,-0.718c-18.762,-1.368 -37.495,-6.228 -53.798,-15.777c-17.614,-10.199 -32.176,-26.119 -39.4,-45.264c-7.07,-19.155 -8.295,-40.519 -3.196,-60.305c8.066,-31.019 32.884,-56.66 63.156,-66.773Z" style="fill:#da251c;fill-rule:nonzero;"/><path d="M1835.12,280.361c11.462,-4.755 23.996,-6.018 36.3,-6.2c24.369,-0.038 48.737,0 73.116,-0.019c-0,10.811 -0,21.623 0.009,32.434c-26.923,0.125 -53.837,0 -80.76,0.058c-5.425,0.057 -11.175,0.784 -15.72,3.989c-4.114,2.785 -6.429,7.865 -6.152,12.792c-0.182,5.176 3.225,9.711 7.243,12.62c8.506,6.104 18.59,9.309 28.148,13.328c17.949,7.434 36.434,14.016 52.899,24.512c6.009,3.932 11.864,8.41 16.017,14.371c4.114,5.645 6.487,12.39 7.568,19.25c1.282,11.902 0.315,24.684 -6.229,35.046c-4.047,6.898 -10.371,12.141 -17.298,15.978c-16.37,8.219 -34.979,10.237 -53.053,10.649c-23.584,0.229 -47.178,-0.029 -70.762,0.143c-0.22,-11.136 -0.019,-22.273 -0.096,-33.41c27.766,-0.029 55.531,0.01 83.296,-0.029c7.319,0.02 15.098,-0.87 21.298,-5.09c4.477,-2.946 7.357,-8.247 7.089,-13.643c0.287,-5.913 -3.243,-11.395 -8.008,-14.619c-8.678,-6.172 -18.877,-9.625 -28.607,-13.73c-16.619,-6.917 -33.812,-12.801 -49.226,-22.264c-7.29,-4.611 -14.418,-10.055 -18.829,-17.623c-6.19,-10.171 -7.644,-22.628 -5.836,-34.243c0.995,-8.429 4.813,-16.428 10.505,-22.704c4.669,-5.167 10.774,-8.793 17.088,-11.596Z" style="fill:#da251c;fill-rule:nonzero;"/></g></g><g><path d="M1158.54,12.495c10.037,-2.277 20.159,-4.181 30.224,-6.295c1.11,12.878 1.742,25.966 -0.975,38.691c-2.383,11.769 -6.478,23.145 -11.663,33.956c-0.689,-12.562 -0.756,-25.326 -4.411,-37.486c-2.717,-10.314 -8.113,-19.585 -13.175,-28.866Z" style="fill:#00587c;fill-rule:nonzero;"/><path d="M954.124,129.479c15.098,-25.239 29.861,-50.68 45.112,-75.824c27.507,46.289 55.416,92.338 83.076,138.53c1.167,2.44 3.884,4.708 3.205,7.626c-17.585,59.214 -46.489,114.601 -81.574,165.271c-0.823,-20.321 -0.076,-40.7 -0.373,-61.041c-20.389,20.628 -40.758,41.275 -61.156,61.893c20.321,20.656 40.796,41.16 61.089,61.845c0.21,-16.303 0.038,-32.616 0.096,-48.919c0.105,-4.468 -0.373,-8.975 0.44,-13.395c15.279,-12.868 29.774,-26.655 44.547,-40.098c24.436,-22.79 48.431,-46.049 71.556,-70.169c41.495,69.078 82.99,138.157 124.456,207.254c-93.39,-0.047 -186.779,-0.009 -280.16,-0.019c-6.984,-0.201 -14.016,0.373 -20.972,-0.22c-13.864,-13.155 -27.153,-26.942 -40.902,-40.222c0.106,13.481 0.335,26.971 0.421,40.452c-3.989,-0.01 -7.979,-0.067 -11.95,0.038c-0.162,-18.025 0.23,-36.06 0.019,-54.076c-3.932,-5.224 -9.156,-9.444 -13.576,-14.285c-5.798,-5.779 -11.395,-11.749 -17.27,-17.432c-0.459,28.579 -0.124,57.176 -0.449,85.764c-34.31,-0.105 -68.62,0.096 -102.929,-0.105c34.29,-57.942 68.619,-115.874 103.015,-173.748c0.153,28.454 0.067,56.908 0.048,85.372c28.798,-0 57.606,0.028 86.405,-0.019c-28.617,-28.866 -57.1,-57.856 -85.745,-86.693c31.276,-52.545 62.362,-105.196 93.571,-157.78m6.066,129.23c0.163,14.591 0.134,29.182 0.163,43.782c14.39,-0.086 28.789,-0.325 43.169,-0.077c0.125,-14.619 0.058,-29.238 -0.057,-43.848c-14.428,-0.01 -28.856,-0 -43.275,0.143m-12.17,116.793c-0.21,18.197 -0.354,36.395 -0.574,54.593c18.093,0.229 36.185,0.516 54.287,0.354c-18.064,-18.16 -35.573,-36.874 -53.713,-54.947m-45.36,44.91c13.94,0.172 27.89,-0.048 41.83,0.115c-0.01,-14.208 0.115,-28.416 -0.058,-42.624c-13.844,14.246 -28.129,28.072 -41.772,42.509Z" style="fill:#00587c;fill-rule:nonzero;"/><path d="M1122.3,26.971c10.917,2.258 21.872,4.325 32.702,6.946c7.568,22.312 10.792,45.982 9.989,69.509c-0.134,14.39 -2.277,28.636 -4.363,42.844c18.58,-31.994 34.185,-66.256 41.37,-102.737c8.994,1.866 18.007,3.683 27,5.587c-5.865,18.495 -12.973,36.616 -21.881,53.876c-17.241,33.62 -39.706,64.237 -63.586,93.399c-17.854,21.604 -36.386,42.653 -55.665,62.994c8.199,-15.701 16.475,-31.421 22.924,-47.944c8.841,-21.852 15.634,-44.566 19.652,-67.806c6.736,-38.701 5.98,-79.622 -8.142,-116.668Z" style="fill:#da251c;fill-rule:nonzero;"/></g></g></svg>